<svg width="301" height="237" viewBox="0 0 301 237" fill="none" xmlns="http://www.w3.org/2000/svg">
<rect x="40" width="261" height="202" fill="#77613D"/>
<path d="M0 35L40 0V202L0 237V35Z" fill="#604E31"/>
<rect y="35" width="261" height="202" fill="#465B82"/>
<path d="M261 35L301 0V202L261 237V35Z" fill="#557395"/>
<path d="M276 6.64557L290 0V38.3544L276 48V6.64557Z" fill="#765C30"/>
<path d="M40 0H301L261 35H0L40 0Z" fill="#4E678E"/>
<path d="M40 0H301L261 35H0L40 0Z" fill="#4E678E"/>
<path d="M28.4998 9.99994H289.5L276 21.9999L15.9998 20.9999L28.4998 9.99994Z" fill="#765C30"/>
<path d="M28.4998 9.99994H289.5L276 21.9999L15.9998 20.9999L28.4998 9.99994Z" fill="#765C30"/>
<rect x="198" y="49.9999" width="46" height="51" fill="#D9D9D9"/>
<line x1="205.992" y1="61.0001" x2="234.01" y2="61.0001" stroke="black"/>
<line x1="205.992" y1="68.5001" x2="234.01" y2="68.5001" stroke="black"/>
<line x1="205.992" y1="75.5" x2="234.01" y2="75.5" stroke="black"/>
</svg>
