<svg width="301" height="237" viewBox="0 0 301 237" fill="none" xmlns="http://www.w3.org/2000/svg">
<rect x="40" width="261" height="202" fill="#77613D"/>
<path d="M0 35L40 0V202L0 237V35Z" fill="#604E31"/>
<rect y="35" width="261" height="202" fill="#826B46"/>
<path d="M261 35L301 0V202L261 237V35Z" fill="#957C55"/>
<path d="M276 6.64557L290 0V38.3544L276 48V6.64557Z" fill="#765C30"/>
<path d="M40 0H301L261 35H0L40 0Z" fill="#8E754E"/>
<path d="M40 0H301L261 35H0L40 0Z" fill="#8E754E"/>
<path d="M28.5 10H289.5L276 22L16 21L28.5 10Z" fill="#765C30"/>
<path d="M28.5 10H289.5L276 22L16 21L28.5 10Z" fill="#765C30"/>
</svg>
