<svg width="258" height="140" viewBox="0 0 258 140" fill="none" xmlns="http://www.w3.org/2000/svg">
<mask id="path-1-inside-1_10_2" fill="white">
<path d="M4.95996 20.5L176.833 -2.21946e-05L237.868 118L54.2758 140L4.95996 20.5Z"/>
</mask>
<path d="M4.95996 20.5L176.833 -2.21946e-05L237.868 118L54.2758 140L4.95996 20.5Z" fill="#77613D"/>
<path d="M4.90074 20.0035C4.94022 20.3345 4.9797 20.6655 5.01918 20.9965C15.2748 19.7137 25.5311 18.4361 35.788 17.1637C82.79 11.3331 129.805 5.6119 176.833 2.44906e-05C177.093 0.5018 177.352 1.00361 177.612 1.50542C197.697 40.3369 217.77 79.1751 237.829 118.02L237.862 117.957C176.66 125.25 115.455 132.514 54.2459 139.75L54.5086 139.904C42.061 109.604 29.6208 79.3019 17.1882 48.9963C13.2654 39.4343 9.34341 29.8719 5.42215 20.3092C5.11402 20.4364 4.8059 20.5636 4.49777 20.6907C8.46194 30.2357 12.4254 39.7809 16.388 49.3265C28.9472 79.5799 41.4989 109.836 54.043 140.096L54.1164 140.273L54.3058 140.25C115.491 132.819 176.68 125.417 237.873 118.043L237.935 118.036L237.906 117.98C217.795 79.1618 197.697 40.3369 177.612 1.50542C177.352 1.00361 177.093 0.501786 176.833 -4.37949e-05C129.804 5.60659 82.7626 11.1039 35.7078 16.4918C25.4394 17.6676 15.1704 18.8381 4.90074 20.0035ZM5.01918 20.9965L4.90074 20.0035L4.24638 20.0853L4.49777 20.6907L5.42215 20.3092L5.01918 20.9965Z" fill="black" mask="url(#path-1-inside-1_10_2)"/>
<path d="M39.4299 122.194L0.000137241 80.5461L195.793 55.9285L235.223 97.5762L39.4299 122.194Z" fill="#604E31"/>
<path d="M153.567 24.8821L248.567 58.8821L232.447 123.882L82.5669 103.382L30.0669 58.8821L153.567 24.8821Z" fill="#826B46"/>
<path d="M224.946 85.2397L245.382 134.098L57.7732 71.6762L37.3376 22.8183L224.946 85.2397Z" fill="#957C55"/>
</svg>
