<svg width="301" height="294" viewBox="0 0 301 294" fill="none" xmlns="http://www.w3.org/2000/svg">
<rect x="40" y="57" width="261" height="202" fill="#77613D"/>
<path d="M0 92L40 57V259L0 294V92Z" fill="#604E31"/>
<rect x="85" width="150" height="250" fill="#C6C5C5"/>
<rect x="75" y="8" width="150" height="250" fill="#D9D9D9"/>
<path d="M66 19H216V269H66V19Z" fill="white"/>
<line x1="82.9912" y1="57.5" x2="198.009" y2="57.5" stroke="black"/>
<line x1="82.9912" y1="77.5" x2="198.009" y2="77.5" stroke="black"/>
<line x1="82.9912" y1="97.5" x2="198.009" y2="97.5" stroke="black"/>
<line x1="82.9912" y1="117.5" x2="198.009" y2="117.5" stroke="black"/>
<line x1="82.9912" y1="137.5" x2="198.009" y2="137.5" stroke="black"/>
<line x1="82.9912" y1="157.5" x2="198.009" y2="157.5" stroke="black"/>
<line x1="82.9912" y1="177.5" x2="198.009" y2="177.5" stroke="black"/>
<line x1="82.9912" y1="197.5" x2="198.009" y2="197.5" stroke="black"/>
<line x1="82.9912" y1="217.5" x2="198.009" y2="217.5" stroke="black"/>
<line x1="82.9912" y1="237.5" x2="198.009" y2="237.5" stroke="black"/>
<path d="M83.9205 46V39.4545H84.9261V46H83.9205ZM84.4318 38.3636C84.2358 38.3636 84.0668 38.2969 83.9247 38.1634C83.7855 38.0298 83.7159 37.8693 83.7159 37.6818C83.7159 37.4943 83.7855 37.3338 83.9247 37.2003C84.0668 37.0668 84.2358 37 84.4318 37C84.6278 37 84.7955 37.0668 84.9347 37.2003C85.0767 37.3338 85.1477 37.4943 85.1477 37.6818C85.1477 37.8693 85.0767 38.0298 84.9347 38.1634C84.7955 38.2969 84.6278 38.3636 84.4318 38.3636ZM87.7738 42.0625V46H86.7681V39.4545H87.7397V40.4773H87.8249C87.9783 40.1449 88.2113 39.8778 88.5238 39.6761C88.8363 39.4716 89.2397 39.3693 89.734 39.3693C90.1772 39.3693 90.565 39.4602 90.8974 39.642C91.2298 39.821 91.4883 40.0938 91.6729 40.4602C91.8576 40.8239 91.9499 41.2841 91.9499 41.8409V46H90.9442V41.9091C90.9442 41.3949 90.8107 40.9943 90.5437 40.7074C90.2766 40.4176 89.9102 40.2727 89.4442 40.2727C89.1232 40.2727 88.8363 40.3423 88.5835 40.4815C88.3335 40.6207 88.136 40.8239 87.9911 41.0909C87.8462 41.358 87.7738 41.6818 87.7738 42.0625ZM96.2592 46.1364C95.7138 46.1364 95.2322 45.9986 94.8146 45.723C94.397 45.4446 94.0703 45.0526 93.8345 44.5469C93.5987 44.0384 93.4808 43.4375 93.4808 42.7443C93.4808 42.0568 93.5987 41.4602 93.8345 40.9545C94.0703 40.4489 94.3984 40.0582 94.8189 39.7827C95.2393 39.5071 95.7251 39.3693 96.2763 39.3693C96.7024 39.3693 97.0391 39.4403 97.2862 39.5824C97.5362 39.7216 97.7266 39.8807 97.8572 40.0597C97.9908 40.2358 98.0945 40.3807 98.1683 40.4943H98.2536V37.2727H99.2592V46H98.2876V44.9943H98.1683C98.0945 45.1136 97.9893 45.2642 97.853 45.446C97.7166 45.625 97.522 45.7855 97.2692 45.9276C97.0163 46.0668 96.6797 46.1364 96.2592 46.1364ZM96.3956 45.233C96.799 45.233 97.1399 45.1278 97.4183 44.9176C97.6967 44.7045 97.9084 44.4105 98.0533 44.0355C98.1982 43.6577 98.2706 43.2216 98.2706 42.7273C98.2706 42.2386 98.1996 41.8111 98.0575 41.4446C97.9155 41.0753 97.7053 40.7884 97.4268 40.5838C97.1484 40.3764 96.8047 40.2727 96.3956 40.2727C95.9695 40.2727 95.6143 40.3821 95.3303 40.6009C95.049 40.8168 94.8374 41.1108 94.6953 41.483C94.5561 41.8523 94.4865 42.267 94.4865 42.7273C94.4865 43.1932 94.5575 43.6165 94.6996 43.9972C94.8445 44.375 95.0575 44.6761 95.3388 44.9006C95.6229 45.1222 95.9751 45.233 96.3956 45.233ZM103.985 46.1364C103.354 46.1364 102.81 45.9972 102.353 45.7188C101.898 45.4375 101.548 45.0455 101.3 44.5426C101.056 44.0369 100.934 43.4489 100.934 42.7784C100.934 42.108 101.056 41.517 101.3 41.0057C101.548 40.4915 101.891 40.0909 102.332 39.804C102.775 39.5142 103.292 39.3693 103.883 39.3693C104.224 39.3693 104.56 39.4261 104.893 39.5398C105.225 39.6534 105.528 39.8381 105.8 40.0938C106.073 40.3466 106.29 40.6818 106.452 41.0994C106.614 41.517 106.695 42.0312 106.695 42.642V43.0682H101.65V42.1989H105.673C105.673 41.8295 105.599 41.5 105.451 41.2102C105.306 40.9205 105.099 40.6918 104.829 40.5241C104.562 40.3565 104.246 40.2727 103.883 40.2727C103.482 40.2727 103.136 40.3722 102.843 40.571C102.553 40.767 102.33 41.0227 102.174 41.3381C102.018 41.6534 101.94 41.9915 101.94 42.3523V42.9318C101.94 43.4261 102.025 43.8452 102.195 44.1889C102.369 44.5298 102.609 44.7898 102.915 44.9688C103.222 45.1449 103.579 45.233 103.985 45.233C104.249 45.233 104.488 45.196 104.701 45.1222C104.917 45.0455 105.103 44.9318 105.259 44.7812C105.415 44.6278 105.536 44.4375 105.621 44.2102L106.593 44.483C106.491 44.8125 106.319 45.1023 106.077 45.3523C105.836 45.5994 105.538 45.7926 105.183 45.9318C104.827 46.0682 104.428 46.1364 103.985 46.1364ZM108.799 39.4545L110.368 42.1307L111.936 39.4545H113.095L110.981 42.7273L113.095 46H111.936L110.368 43.4602L108.799 46H107.64L109.72 42.7273L107.64 39.4545H108.799ZM115.263 46.0682C115.053 46.0682 114.872 45.9929 114.722 45.8423C114.571 45.6918 114.496 45.5114 114.496 45.3011C114.496 45.0909 114.571 44.9105 114.722 44.7599C114.872 44.6094 115.053 44.5341 115.263 44.5341C115.473 44.5341 115.653 44.6094 115.804 44.7599C115.955 44.9105 116.03 45.0909 116.03 45.3011C116.03 45.4403 115.994 45.5682 115.923 45.6847C115.855 45.8011 115.763 45.8949 115.646 45.9659C115.533 46.0341 115.405 46.0682 115.263 46.0682ZM118.84 42.0625V46H117.835V37.2727H118.84V40.4773H118.925C119.079 40.1392 119.309 39.8707 119.616 39.6719C119.925 39.4702 120.337 39.3693 120.852 39.3693C121.298 39.3693 121.688 39.4588 122.023 39.6378C122.359 39.8139 122.619 40.0852 122.803 40.4517C122.991 40.8153 123.085 41.2784 123.085 41.8409V46H122.079V41.9091C122.079 41.3892 121.944 40.9872 121.674 40.7031C121.407 40.4162 121.036 40.2727 120.562 40.2727C120.232 40.2727 119.937 40.3423 119.675 40.4815C119.417 40.6207 119.212 40.8239 119.062 41.0909C118.914 41.358 118.84 41.6818 118.84 42.0625ZM127.771 39.4545V40.3068H124.379V39.4545H127.771ZM125.368 37.8864H126.373V44.125C126.373 44.4091 126.414 44.6222 126.497 44.7642C126.582 44.9034 126.69 44.9972 126.821 45.0455C126.954 45.0909 127.095 45.1136 127.243 45.1136C127.353 45.1136 127.444 45.108 127.515 45.0966C127.586 45.0824 127.643 45.071 127.686 45.0625L127.89 45.9659C127.822 45.9915 127.727 46.017 127.605 46.0426C127.483 46.071 127.328 46.0852 127.14 46.0852C126.856 46.0852 126.578 46.0241 126.305 45.902C126.035 45.7798 125.811 45.5938 125.632 45.3438C125.456 45.0938 125.368 44.7784 125.368 44.3977V37.8864ZM129.284 46V39.4545H130.255V40.4773H130.341C130.477 40.1278 130.697 39.8565 131.001 39.6634C131.305 39.4673 131.67 39.3693 132.096 39.3693C132.528 39.3693 132.887 39.4673 133.174 39.6634C133.464 39.8565 133.69 40.1278 133.852 40.4773H133.92C134.088 40.1392 134.339 39.8707 134.674 39.6719C135.01 39.4702 135.412 39.3693 135.88 39.3693C136.466 39.3693 136.944 39.5526 137.316 39.919C137.689 40.2827 137.875 40.8494 137.875 41.6193V46H136.869V41.6193C136.869 41.1364 136.737 40.7912 136.473 40.5838C136.208 40.3764 135.897 40.2727 135.539 40.2727C135.079 40.2727 134.723 40.4119 134.47 40.6903C134.217 40.9659 134.091 41.3153 134.091 41.7386V46H133.068V41.517C133.068 41.1449 132.947 40.8452 132.706 40.6179C132.464 40.3878 132.153 40.2727 131.772 40.2727C131.511 40.2727 131.267 40.3423 131.039 40.4815C130.815 40.6207 130.633 40.8139 130.494 41.0611C130.358 41.3054 130.289 41.5881 130.289 41.9091V46H129.284ZM140.719 37.2727V46H139.713V37.2727H140.719Z" fill="black"/>
<rect y="92" width="261" height="202" fill="#826B46"/>
<path d="M261 92L301 57V259L261 294V92Z" fill="#957C55"/>
</svg>
