<svg width="169" height="269" viewBox="0 0 169 269" fill="none" xmlns="http://www.w3.org/2000/svg">
<rect x="19" width="150" height="250" fill="#C6C5C5"/>
<rect x="9" y="8" width="150" height="250" fill="#D9D9D9"/>
<path d="M0 19H150V269H0V19Z" fill="white"/>
<line x1="16.9912" y1="57.5" x2="132.009" y2="57.5" stroke="black"/>
<line x1="16.9912" y1="77.5" x2="132.009" y2="77.5" stroke="black"/>
<line x1="16.9912" y1="97.5" x2="132.009" y2="97.5" stroke="black"/>
<line x1="16.9912" y1="117.5" x2="132.009" y2="117.5" stroke="black"/>
<line x1="16.9912" y1="137.5" x2="132.009" y2="137.5" stroke="black"/>
<line x1="16.9912" y1="157.5" x2="132.009" y2="157.5" stroke="black"/>
<line x1="16.9912" y1="177.5" x2="132.009" y2="177.5" stroke="black"/>
<line x1="16.9912" y1="197.5" x2="132.009" y2="197.5" stroke="black"/>
<line x1="16.9912" y1="217.5" x2="132.009" y2="217.5" stroke="black"/>
<line x1="16.9912" y1="237.5" x2="132.009" y2="237.5" stroke="black"/>
<path d="M17.9205 46V39.4545H18.9261V46H17.9205ZM18.4318 38.3636C18.2358 38.3636 18.0668 38.2969 17.9247 38.1634C17.7855 38.0298 17.7159 37.8693 17.7159 37.6818C17.7159 37.4943 17.7855 37.3338 17.9247 37.2003C18.0668 37.0668 18.2358 37 18.4318 37C18.6278 37 18.7955 37.0668 18.9347 37.2003C19.0767 37.3338 19.1477 37.4943 19.1477 37.6818C19.1477 37.8693 19.0767 38.0298 18.9347 38.1634C18.7955 38.2969 18.6278 38.3636 18.4318 38.3636ZM21.7738 42.0625V46H20.7681V39.4545H21.7397V40.4773H21.8249C21.9783 40.1449 22.2113 39.8778 22.5238 39.6761C22.8363 39.4716 23.2397 39.3693 23.734 39.3693C24.1772 39.3693 24.565 39.4602 24.8974 39.642C25.2298 39.821 25.4883 40.0938 25.6729 40.4602C25.8576 40.8239 25.9499 41.2841 25.9499 41.8409V46H24.9442V41.9091C24.9442 41.3949 24.8107 40.9943 24.5437 40.7074C24.2766 40.4176 23.9102 40.2727 23.4442 40.2727C23.1232 40.2727 22.8363 40.3423 22.5835 40.4815C22.3335 40.6207 22.136 40.8239 21.9911 41.0909C21.8462 41.358 21.7738 41.6818 21.7738 42.0625ZM30.2592 46.1364C29.7138 46.1364 29.2322 45.9986 28.8146 45.723C28.397 45.4446 28.0703 45.0526 27.8345 44.5469C27.5987 44.0384 27.4808 43.4375 27.4808 42.7443C27.4808 42.0568 27.5987 41.4602 27.8345 40.9545C28.0703 40.4489 28.3984 40.0582 28.8189 39.7827C29.2393 39.5071 29.7251 39.3693 30.2763 39.3693C30.7024 39.3693 31.0391 39.4403 31.2862 39.5824C31.5362 39.7216 31.7266 39.8807 31.8572 40.0597C31.9908 40.2358 32.0945 40.3807 32.1683 40.4943H32.2536V37.2727H33.2592V46H32.2876V44.9943H32.1683C32.0945 45.1136 31.9893 45.2642 31.853 45.446C31.7166 45.625 31.522 45.7855 31.2692 45.9276C31.0163 46.0668 30.6797 46.1364 30.2592 46.1364ZM30.3956 45.233C30.799 45.233 31.1399 45.1278 31.4183 44.9176C31.6967 44.7045 31.9084 44.4105 32.0533 44.0355C32.1982 43.6577 32.2706 43.2216 32.2706 42.7273C32.2706 42.2386 32.1996 41.8111 32.0575 41.4446C31.9155 41.0753 31.7053 40.7884 31.4268 40.5838C31.1484 40.3764 30.8047 40.2727 30.3956 40.2727C29.9695 40.2727 29.6143 40.3821 29.3303 40.6009C29.049 40.8168 28.8374 41.1108 28.6953 41.483C28.5561 41.8523 28.4865 42.267 28.4865 42.7273C28.4865 43.1932 28.5575 43.6165 28.6996 43.9972C28.8445 44.375 29.0575 44.6761 29.3388 44.9006C29.6229 45.1222 29.9751 45.233 30.3956 45.233ZM37.9851 46.1364C37.3544 46.1364 36.8104 45.9972 36.353 45.7188C35.8984 45.4375 35.5476 45.0455 35.3004 44.5426C35.0561 44.0369 34.9339 43.4489 34.9339 42.7784C34.9339 42.108 35.0561 41.517 35.3004 41.0057C35.5476 40.4915 35.8913 40.0909 36.3317 39.804C36.7749 39.5142 37.2919 39.3693 37.8828 39.3693C38.2237 39.3693 38.5604 39.4261 38.8928 39.5398C39.2251 39.6534 39.5277 39.8381 39.8004 40.0938C40.0732 40.3466 40.2905 40.6818 40.4524 41.0994C40.6143 41.517 40.6953 42.0312 40.6953 42.642V43.0682H35.6499V42.1989H39.6726C39.6726 41.8295 39.5987 41.5 39.451 41.2102C39.3061 40.9205 39.0987 40.6918 38.8288 40.5241C38.5618 40.3565 38.2464 40.2727 37.8828 40.2727C37.4822 40.2727 37.1357 40.3722 36.843 40.571C36.5533 40.767 36.3303 41.0227 36.174 41.3381C36.0178 41.6534 35.9396 41.9915 35.9396 42.3523V42.9318C35.9396 43.4261 36.0249 43.8452 36.1953 44.1889C36.3686 44.5298 36.6087 44.7898 36.9155 44.9688C37.2223 45.1449 37.5788 45.233 37.9851 45.233C38.2493 45.233 38.4879 45.196 38.701 45.1222C38.9169 45.0455 39.103 44.9318 39.2592 44.7812C39.4155 44.6278 39.5362 44.4375 39.6214 44.2102L40.593 44.483C40.4908 44.8125 40.3189 45.1023 40.0774 45.3523C39.8359 45.5994 39.5376 45.7926 39.1825 45.9318C38.8274 46.0682 38.4283 46.1364 37.9851 46.1364ZM42.7994 39.4545L44.3675 42.1307L45.9357 39.4545H47.0948L44.9812 42.7273L47.0948 46H45.9357L44.3675 43.4602L42.7994 46H41.6403L43.7198 42.7273L41.6403 39.4545H42.7994ZM49.2628 46.0682C49.0526 46.0682 48.8722 45.9929 48.7216 45.8423C48.571 45.6918 48.4957 45.5114 48.4957 45.3011C48.4957 45.0909 48.571 44.9105 48.7216 44.7599C48.8722 44.6094 49.0526 44.5341 49.2628 44.5341C49.473 44.5341 49.6534 44.6094 49.804 44.7599C49.9545 44.9105 50.0298 45.0909 50.0298 45.3011C50.0298 45.4403 49.9943 45.5682 49.9233 45.6847C49.8551 45.8011 49.7628 45.8949 49.6463 45.9659C49.5327 46.0341 49.4048 46.0682 49.2628 46.0682ZM52.8402 42.0625V46H51.8345V37.2727H52.8402V40.4773H52.9254C53.0788 40.1392 53.3089 39.8707 53.6158 39.6719C53.9254 39.4702 54.3374 39.3693 54.8516 39.3693C55.2976 39.3693 55.6882 39.4588 56.0234 39.6378C56.3587 39.8139 56.6186 40.0852 56.8033 40.4517C56.9908 40.8153 57.0845 41.2784 57.0845 41.8409V46H56.0788V41.9091C56.0788 41.3892 55.9439 40.9872 55.674 40.7031C55.407 40.4162 55.0362 40.2727 54.5618 40.2727C54.2322 40.2727 53.9368 40.3423 53.6754 40.4815C53.4169 40.6207 53.2124 40.8239 53.0618 41.0909C52.9141 41.358 52.8402 41.6818 52.8402 42.0625ZM61.771 39.4545V40.3068H58.3789V39.4545H61.771ZM59.3675 37.8864H60.3732V44.125C60.3732 44.4091 60.4144 44.6222 60.4968 44.7642C60.582 44.9034 60.69 44.9972 60.8207 45.0455C60.9542 45.0909 61.0948 45.1136 61.2425 45.1136C61.3533 45.1136 61.4442 45.108 61.5153 45.0966C61.5863 45.0824 61.6431 45.071 61.6857 45.0625L61.8903 45.9659C61.8221 45.9915 61.7269 46.017 61.6048 46.0426C61.4826 46.071 61.3278 46.0852 61.1403 46.0852C60.8562 46.0852 60.5778 46.0241 60.305 45.902C60.0352 45.7798 59.8107 45.5938 59.6317 45.3438C59.4556 45.0938 59.3675 44.7784 59.3675 44.3977V37.8864ZM63.2837 46V39.4545H64.2553V40.4773H64.3406C64.4769 40.1278 64.6971 39.8565 65.0011 39.6634C65.305 39.4673 65.6701 39.3693 66.0962 39.3693C66.5281 39.3693 66.8874 39.4673 67.1744 39.6634C67.4641 39.8565 67.69 40.1278 67.8519 40.4773H67.9201C68.0877 40.1392 68.3391 39.8707 68.6744 39.6719C69.0096 39.4702 69.4116 39.3693 69.8803 39.3693C70.4656 39.3693 70.9442 39.5526 71.3164 39.919C71.6886 40.2827 71.8746 40.8494 71.8746 41.6193V46H70.869V41.6193C70.869 41.1364 70.7369 40.7912 70.4727 40.5838C70.2085 40.3764 69.8974 40.2727 69.5394 40.2727C69.0792 40.2727 68.7227 40.4119 68.4698 40.6903C68.217 40.9659 68.0906 41.3153 68.0906 41.7386V46H67.0678V41.517C67.0678 41.1449 66.9471 40.8452 66.7056 40.6179C66.4641 40.3878 66.1531 40.2727 65.7724 40.2727C65.511 40.2727 65.2667 40.3423 65.0394 40.4815C64.815 40.6207 64.6332 40.8139 64.494 41.0611C64.3576 41.3054 64.2894 41.5881 64.2894 41.9091V46H63.2837ZM74.7191 37.2727V46H73.7134V37.2727H74.7191Z" fill="black"/>
</svg>
