<svg width="618" height="269" viewBox="0 0 618 269" fill="none" xmlns="http://www.w3.org/2000/svg">
<rect x="40" y="16" width="261" height="202" fill="#77613D"/>
<path d="M0 51L40 16V218L0 253V51Z" fill="#604E31"/>
<rect y="51" width="261" height="202" fill="#826B46"/>
<path d="M261 51L301 16V218L261 253V51Z" fill="#957C55"/>
<rect x="468" width="150" height="250" fill="#C6C5C5"/>
<rect x="458" y="8" width="150" height="250" fill="#D9D9D9"/>
<path d="M449 19H599V269H449V19Z" fill="white"/>
<line x1="465.991" y1="57.5" x2="581.009" y2="57.5" stroke="black"/>
<line x1="465.991" y1="77.5" x2="581.009" y2="77.5" stroke="black"/>
<line x1="465.991" y1="97.5" x2="581.009" y2="97.5" stroke="black"/>
<line x1="465.991" y1="117.5" x2="581.009" y2="117.5" stroke="black"/>
<line x1="465.991" y1="137.5" x2="581.009" y2="137.5" stroke="black"/>
<line x1="465.991" y1="157.5" x2="581.009" y2="157.5" stroke="black"/>
<line x1="465.991" y1="177.5" x2="581.009" y2="177.5" stroke="black"/>
<line x1="465.991" y1="197.5" x2="581.009" y2="197.5" stroke="black"/>
<line x1="465.991" y1="217.5" x2="581.009" y2="217.5" stroke="black"/>
<line x1="465.991" y1="237.5" x2="581.009" y2="237.5" stroke="black"/>
<path d="M466.92 46V39.4545H467.926V46H466.92ZM467.432 38.3636C467.236 38.3636 467.067 38.2969 466.925 38.1634C466.786 38.0298 466.716 37.8693 466.716 37.6818C466.716 37.4943 466.786 37.3338 466.925 37.2003C467.067 37.0668 467.236 37 467.432 37C467.628 37 467.795 37.0668 467.935 37.2003C468.077 37.3338 468.148 37.4943 468.148 37.6818C468.148 37.8693 468.077 38.0298 467.935 38.1634C467.795 38.2969 467.628 38.3636 467.432 38.3636ZM470.774 42.0625V46H469.768V39.4545H470.74V40.4773H470.825C470.978 40.1449 471.211 39.8778 471.524 39.6761C471.836 39.4716 472.24 39.3693 472.734 39.3693C473.177 39.3693 473.565 39.4602 473.897 39.642C474.23 39.821 474.488 40.0938 474.673 40.4602C474.858 40.8239 474.95 41.2841 474.95 41.8409V46H473.944V41.9091C473.944 41.3949 473.811 40.9943 473.544 40.7074C473.277 40.4176 472.91 40.2727 472.444 40.2727C472.123 40.2727 471.836 40.3423 471.583 40.4815C471.333 40.6207 471.136 40.8239 470.991 41.0909C470.846 41.358 470.774 41.6818 470.774 42.0625ZM479.259 46.1364C478.714 46.1364 478.232 45.9986 477.815 45.723C477.397 45.4446 477.07 45.0526 476.835 44.5469C476.599 44.0384 476.481 43.4375 476.481 42.7443C476.481 42.0568 476.599 41.4602 476.835 40.9545C477.07 40.4489 477.398 40.0582 477.819 39.7827C478.239 39.5071 478.725 39.3693 479.276 39.3693C479.702 39.3693 480.039 39.4403 480.286 39.5824C480.536 39.7216 480.727 39.8807 480.857 40.0597C480.991 40.2358 481.094 40.3807 481.168 40.4943H481.254V37.2727H482.259V46H481.288V44.9943H481.168C481.094 45.1136 480.989 45.2642 480.853 45.446C480.717 45.625 480.522 45.7855 480.269 45.9276C480.016 46.0668 479.68 46.1364 479.259 46.1364ZM479.396 45.233C479.799 45.233 480.14 45.1278 480.418 44.9176C480.697 44.7045 480.908 44.4105 481.053 44.0355C481.198 43.6577 481.271 43.2216 481.271 42.7273C481.271 42.2386 481.2 41.8111 481.058 41.4446C480.915 41.0753 480.705 40.7884 480.427 40.5838C480.148 40.3764 479.805 40.2727 479.396 40.2727C478.969 40.2727 478.614 40.3821 478.33 40.6009C478.049 40.8168 477.837 41.1108 477.695 41.483C477.556 41.8523 477.487 42.267 477.487 42.7273C477.487 43.1932 477.558 43.6165 477.7 43.9972C477.844 44.375 478.058 44.6761 478.339 44.9006C478.623 45.1222 478.975 45.233 479.396 45.233ZM486.985 46.1364C486.354 46.1364 485.81 45.9972 485.353 45.7188C484.898 45.4375 484.548 45.0455 484.3 44.5426C484.056 44.0369 483.934 43.4489 483.934 42.7784C483.934 42.108 484.056 41.517 484.3 41.0057C484.548 40.4915 484.891 40.0909 485.332 39.804C485.775 39.5142 486.292 39.3693 486.883 39.3693C487.224 39.3693 487.56 39.4261 487.893 39.5398C488.225 39.6534 488.528 39.8381 488.8 40.0938C489.073 40.3466 489.29 40.6818 489.452 41.0994C489.614 41.517 489.695 42.0312 489.695 42.642V43.0682H484.65V42.1989H488.673C488.673 41.8295 488.599 41.5 488.451 41.2102C488.306 40.9205 488.099 40.6918 487.829 40.5241C487.562 40.3565 487.246 40.2727 486.883 40.2727C486.482 40.2727 486.136 40.3722 485.843 40.571C485.553 40.767 485.33 41.0227 485.174 41.3381C485.018 41.6534 484.94 41.9915 484.94 42.3523V42.9318C484.94 43.4261 485.025 43.8452 485.195 44.1889C485.369 44.5298 485.609 44.7898 485.915 44.9688C486.222 45.1449 486.579 45.233 486.985 45.233C487.249 45.233 487.488 45.196 487.701 45.1222C487.917 45.0455 488.103 44.9318 488.259 44.7812C488.415 44.6278 488.536 44.4375 488.621 44.2102L489.593 44.483C489.491 44.8125 489.319 45.1023 489.077 45.3523C488.836 45.5994 488.538 45.7926 488.183 45.9318C487.827 46.0682 487.428 46.1364 486.985 46.1364ZM491.799 39.4545L493.368 42.1307L494.936 39.4545H496.095L493.981 42.7273L496.095 46H494.936L493.368 43.4602L491.799 46H490.64L492.72 42.7273L490.64 39.4545H491.799ZM498.263 46.0682C498.053 46.0682 497.872 45.9929 497.722 45.8423C497.571 45.6918 497.496 45.5114 497.496 45.3011C497.496 45.0909 497.571 44.9105 497.722 44.7599C497.872 44.6094 498.053 44.5341 498.263 44.5341C498.473 44.5341 498.653 44.6094 498.804 44.7599C498.955 44.9105 499.03 45.0909 499.03 45.3011C499.03 45.4403 498.994 45.5682 498.923 45.6847C498.855 45.8011 498.763 45.8949 498.646 45.9659C498.533 46.0341 498.405 46.0682 498.263 46.0682ZM501.84 42.0625V46H500.835V37.2727H501.84V40.4773H501.925C502.079 40.1392 502.309 39.8707 502.616 39.6719C502.925 39.4702 503.337 39.3693 503.852 39.3693C504.298 39.3693 504.688 39.4588 505.023 39.6378C505.359 39.8139 505.619 40.0852 505.803 40.4517C505.991 40.8153 506.085 41.2784 506.085 41.8409V46H505.079V41.9091C505.079 41.3892 504.944 40.9872 504.674 40.7031C504.407 40.4162 504.036 40.2727 503.562 40.2727C503.232 40.2727 502.937 40.3423 502.675 40.4815C502.417 40.6207 502.212 40.8239 502.062 41.0909C501.914 41.358 501.84 41.6818 501.84 42.0625ZM510.771 39.4545V40.3068H507.379V39.4545H510.771ZM508.368 37.8864H509.373V44.125C509.373 44.4091 509.414 44.6222 509.497 44.7642C509.582 44.9034 509.69 44.9972 509.821 45.0455C509.954 45.0909 510.095 45.1136 510.243 45.1136C510.353 45.1136 510.444 45.108 510.515 45.0966C510.586 45.0824 510.643 45.071 510.686 45.0625L510.89 45.9659C510.822 45.9915 510.727 46.017 510.605 46.0426C510.483 46.071 510.328 46.0852 510.14 46.0852C509.856 46.0852 509.578 46.0241 509.305 45.902C509.035 45.7798 508.811 45.5938 508.632 45.3438C508.456 45.0938 508.368 44.7784 508.368 44.3977V37.8864ZM512.284 46V39.4545H513.255V40.4773H513.341C513.477 40.1278 513.697 39.8565 514.001 39.6634C514.305 39.4673 514.67 39.3693 515.096 39.3693C515.528 39.3693 515.887 39.4673 516.174 39.6634C516.464 39.8565 516.69 40.1278 516.852 40.4773H516.92C517.088 40.1392 517.339 39.8707 517.674 39.6719C518.01 39.4702 518.412 39.3693 518.88 39.3693C519.466 39.3693 519.944 39.5526 520.316 39.919C520.689 40.2827 520.875 40.8494 520.875 41.6193V46H519.869V41.6193C519.869 41.1364 519.737 40.7912 519.473 40.5838C519.208 40.3764 518.897 40.2727 518.539 40.2727C518.079 40.2727 517.723 40.4119 517.47 40.6903C517.217 40.9659 517.091 41.3153 517.091 41.7386V46H516.068V41.517C516.068 41.1449 515.947 40.8452 515.706 40.6179C515.464 40.3878 515.153 40.2727 514.772 40.2727C514.511 40.2727 514.267 40.3423 514.039 40.4815C513.815 40.6207 513.633 40.8139 513.494 41.0611C513.358 41.3054 513.289 41.5881 513.289 41.9091V46H512.284ZM523.719 37.2727V46H522.713V37.2727H523.719Z" fill="black"/>
</svg>
