<svg width="535" height="202" viewBox="0 0 535 202" fill="none" xmlns="http://www.w3.org/2000/svg">
<path d="M445 0L534.5 14L129 202L0 185L445 0Z" fill="#414141"/>
<rect x="65.7634" y="91.5" width="99.5933" height="75.0042" fill="#77613D"/>
<path d="M50.5 104.496L65.7633 91.5V166.504L50.5 179.5V104.496Z" fill="#604E31"/>
<rect x="50.5" y="104.496" width="99.5933" height="75.0042" fill="#826B46"/>
<path d="M150.093 104.496L165.357 91.5V166.504L150.093 179.5V104.496Z" fill="#957C55"/>
<path d="M155.817 93.9676L161.159 91.5V105.741L155.817 109.323V93.9676Z" fill="#765C30"/>
<path d="M65.7633 91.5H165.357L150.093 104.496H50.5L65.7633 91.5Z" fill="#8E754E"/>
<path d="M65.7633 91.5H165.357L150.093 104.496H50.5L65.7633 91.5Z" fill="#8E754E"/>
<path d="M61.375 95.2131H160.968L155.817 99.6688L56.6052 99.2975L61.375 95.2131Z" fill="#765C30"/>
<path d="M61.375 95.2131H160.968L155.817 99.6688L56.6052 99.2975L61.375 95.2131Z" fill="#765C30"/>
<rect x="126.053" y="110.065" width="17.5528" height="18.9367" fill="#D9D9D9"/>
<line x1="129.103" y1="113.835" x2="139.794" y2="113.835" stroke="black"/>
<line x1="129.103" y1="116.62" x2="139.794" y2="116.62" stroke="black"/>
<line x1="129.103" y1="119.219" x2="139.794" y2="119.219" stroke="black"/>
</svg>
