<svg width="718" height="240" viewBox="0 0 718 240" fill="none" xmlns="http://www.w3.org/2000/svg">
<path d="M445 0L534.5 14L129 202L0 185L445 0Z" fill="#414141"/>
<path d="M620.729 22.1235L710.663 32.9915L311.971 235.029L182.456 222.541L620.729 22.1235Z" fill="#414141"/>
<path d="M211 163.5L266 186.5L183 222.5L128.5 201.5L211 163.5Z" fill="#414141"/>
<rect x="519.093" y="23" width="78.907" height="58.8101" fill="#77613D"/>
<path d="M507 33.1899L519.093 23V81.8101L507 92V33.1899Z" fill="#604E31"/>
<rect x="507" y="33.1899" width="78.907" height="58.8101" fill="#465B82"/>
<path d="M585.907 33.1899L598 23V81.8101L585.907 92V33.1899Z" fill="#557395"/>
<path d="M590.442 24.9348L594.674 23V34.1665L590.442 36.9747V24.9348Z" fill="#765C30"/>
<path d="M519.093 23H598L585.907 33.1899H507L519.093 23Z" fill="#4E678E"/>
<path d="M519.093 23H598L585.907 33.1899H507L519.093 23Z" fill="#4E678E"/>
<path d="M515.616 25.9114H594.523L590.442 29.405L511.837 29.1139L515.616 25.9114Z" fill="#765C30"/>
<path d="M515.616 25.9114H594.523L590.442 29.405L511.837 29.1139L515.616 25.9114Z" fill="#765C30"/>
<rect x="566.86" y="37.5569" width="13.907" height="14.8481" fill="#D9D9D9"/>
<line x1="569.276" y1="40.4051" x2="577.747" y2="40.4051" stroke="black"/>
<line x1="569.276" y1="42.5886" x2="577.747" y2="42.5886" stroke="black"/>
<line x1="569.276" y1="44.6266" x2="577.747" y2="44.6266" stroke="black"/>
<rect x="65.7634" y="91.5" width="99.5933" height="75.0042" fill="#77613D"/>
<path d="M50.5 104.496L65.7633 91.5V166.504L50.5 179.5V104.496Z" fill="#604E31"/>
<rect x="50.5" y="104.496" width="99.5933" height="75.0042" fill="#826B46"/>
<path d="M150.093 104.496L165.357 91.5V166.504L150.093 179.5V104.496Z" fill="#957C55"/>
<path d="M155.817 93.9676L161.159 91.5V105.741L155.817 109.323V93.9676Z" fill="#765C30"/>
<path d="M65.7633 91.5H165.357L150.093 104.496H50.5L65.7633 91.5Z" fill="#8E754E"/>
<path d="M65.7633 91.5H165.357L150.093 104.496H50.5L65.7633 91.5Z" fill="#8E754E"/>
<path d="M61.375 95.2131H160.968L155.817 99.6688L56.6052 99.2975L61.375 95.2131Z" fill="#765C30"/>
<path d="M61.375 95.2131H160.968L155.817 99.6688L56.6052 99.2975L61.375 95.2131Z" fill="#765C30"/>
<rect x="126.053" y="110.065" width="17.5528" height="18.9367" fill="#D9D9D9"/>
<line x1="129.103" y1="113.835" x2="139.794" y2="113.835" stroke="black"/>
<line x1="129.103" y1="116.62" x2="139.794" y2="116.62" stroke="black"/>
<line x1="129.103" y1="119.219" x2="139.794" y2="119.219" stroke="black"/>
</svg>
